<svg xmlns="http://www.w3.org/2000/svg" width="27.998" height="43"><path fill="#FFF" d="M20.016 8.071c.507.144.981.365 1.388.662l.683.5c.761-.795 1.714-1.953 1.714-2.783 0-1.926-1.44-2.827-3.239-3.242l-.546 4.863zM8.399 20.066h3.5v-1.434h-3.5v1.434zM9.421 7.877c.36.003.724.041 1.086.118 1.353.287 2.565 1.066 3.491 2.228.927-1.162 2.139-1.941 3.492-2.229a5.373 5.373 0 011.138-.115l.55-4.903a22.335 22.335 0 00-2.381-.11.71.71 0 01-.7-.717V.717a.708.708 0 00-.7-.717h-2.8c-.387 0-.7.32-.7.717V2.15a.709.709 0 01-.7.717c-.626 0-1.295.019-1.963.073l.187 4.937z"/><path fill="#FFF" d="M17.775 9.398c-1.281.271-2.41 1.138-3.177 2.438-.254.43-.945.43-1.199 0-.766-1.3-1.894-2.166-3.176-2.438-1.031-.219-2.087-.032-2.817.502l-1.079.664c.149 3.372.883 5.465 1.479 6.637H11.9c.005-.792.634-1.434 1.408-1.434h1.381c.774 0 1.403.642 1.408 1.434h4.095c.589-1.158 1.312-3.216 1.472-6.516L20.591 9.9c-.73-.533-1.782-.72-2.816-.502"/><path fill="#FFF" d="M14.699 21.49v-4.282l-1.39-.009-.01 4.29 1.39.01c.005.001.01-.004.01-.009m1.4-1.424h3.5v-1.434h-3.5v1.434zM6.639 8.702a4.208 4.208 0 011.388-.647l-.184-4.934c-1.985.372-3.646 1.259-3.646 3.328 0 .812.911 1.938 1.664 2.73l.778-.477zM25.898 36.55a.709.709 0 01-.7-.717c0-.396.314-.716.7-.716.386 0 .7.321.7.716a.709.709 0 01-.7.717m-1.4 2.15c-.386 0-.7-.321-.7-.717s.314-.717.7-.717c.386 0 .7.321.7.717s-.313.717-.7.717m-1.4 2.15c-.386 0-.7-.321-.7-.717s.314-.717.7-.717c.386 0 .7.321.7.717s-.313.717-.7.717m-1.4-2.15c-.386 0-.7-.321-.7-.717s.313-.717.7-.717c.386 0 .7.321.7.717s-.313.717-.7.717m-1.399 2.15c-.386 0-.7-.321-.7-.717s.314-.717.7-.717c.386 0 .7.321.7.717s-.314.717-.7.717m-1.4-2.15c-.386 0-.7-.321-.7-.717s.313-.717.7-.717c.386 0 .7.321.7.717s-.314.717-.7.717m-1.4 2.15c-.386 0-.7-.321-.7-.717s.313-.717.7-.717c.386 0 .7.321.7.717s-.314.717-.7.717m-1.4-2.15c-.386 0-.7-.321-.7-.717s.313-.717.7-.717c.386 0 .7.321.7.717s-.314.717-.7.717m-1.4 2.15c-.386 0-.7-.321-.7-.717s.314-.717.7-.717.7.321.7.717-.314.717-.7.717m-1.4-2.15c-.386 0-.7-.321-.7-.717s.313-.717.7-.717c.386 0 .7.321.7.717s-.314.717-.7.717m-1.4 2.15c-.386 0-.7-.321-.7-.717s.314-.717.7-.717.7.321.7.717-.314.717-.7.717m-1.4-2.15c-.386 0-.7-.321-.7-.717s.313-.717.7-.717.7.321.7.717-.313.717-.7.717m-1.4 2.15c-.386 0-.7-.321-.7-.717s.314-.717.7-.717.7.321.7.717-.313.717-.7.717m-1.4-2.15c-.386 0-.7-.321-.7-.717s.314-.717.7-.717c.386 0 .7.321.7.717s-.313.717-.7.717M6.3 40.85c-.386 0-.7-.321-.7-.717s.314-.717.7-.717.7.322.7.717-.314.717-.7.717M4.9 38.7c-.386 0-.7-.321-.7-.717s.314-.717.7-.717c.386 0 .7.321.7.717s-.314.717-.7.717m-1.4-2.15a.709.709 0 01-.7-.717c0-.396.314-.716.7-.716.386 0 .7.321.7.716a.709.709 0 01-.7.717M2.1 38.7c-.386 0-.7-.321-.7-.717s.314-.717.7-.717c.386 0 .7.321.7.717s-.314.717-.7.717m1.4-7.884c.386 0 .7.321.7.717s-.314.717-.7.717c-.386 0-.7-.321-.7-.717s.314-.717.7-.717m1.4-2.149c.386 0 .7.321.7.717s-.314.716-.7.716c-.386 0-.7-.321-.7-.716s.313-.717.7-.717m1.4-2.15c.386 0 .7.321.7.717s-.314.716-.7.716-.7-.321-.7-.716.313-.717.7-.717m1.399-2.15c.386 0 .7.321.7.716a.708.708 0 01-.7.717.709.709 0 01-.7-.717.71.71 0 01.7-.716m1.4-2.15c.386 0 .7.321.7.716s-.314.717-.7.717-.7-.321-.7-.717.314-.716.7-.716m1.4 2.15c.386 0 .7.321.7.716 0 .396-.313.717-.7.717s-.7-.321-.7-.717c0-.395.314-.716.7-.716m1.4 2.15c.386 0 .7.321.7.717s-.314.716-.7.716-.7-.321-.7-.716.314-.717.7-.717m1.4-2.15c.386 0 .7.321.7.716a.709.709 0 01-.7.717.709.709 0 01-.7-.717c0-.395.314-.716.7-.716m1.4 2.15c.386 0 .7.321.7.717s-.314.716-.7.716-.7-.321-.7-.716.314-.717.7-.717m1.4-2.15c.386 0 .7.321.7.716a.709.709 0 01-.7.717.709.709 0 01-.7-.717c0-.395.313-.716.7-.716m1.4-2.15c.386 0 .7.321.7.716s-.314.717-.7.717c-.386 0-.7-.321-.7-.717s.313-.716.7-.716m1.4 2.15c.386 0 .7.321.7.716a.708.708 0 01-.7.717.709.709 0 01-.7-.717c0-.395.313-.716.7-.716m1.4-2.15c.386 0 .7.321.7.716s-.314.717-.7.717c-.386 0-.7-.321-.7-.717s.313-.716.7-.716m1.399 2.15c.386 0 .7.321.7.716a.708.708 0 01-.7.717.709.709 0 01-.7-.717.71.71 0 01.7-.716m1.4 2.15c.386 0 .7.321.7.717s-.313.716-.7.716c-.386 0-.7-.321-.7-.716s.314-.717.7-.717m0 5.733c-.386 0-.7-.321-.7-.717s.314-.717.7-.717c.386 0 .7.321.7.717s-.313.717-.7.717m0 2.867c.386 0 .7.321.7.716a.708.708 0 01-.7.717.709.709 0 01-.7-.717c0-.395.314-.716.7-.716m-1.4-2.15c.386 0 .7.321.7.717a.708.708 0 01-.7.716.709.709 0 01-.7-.716.71.71 0 01.7-.717m0-4.3c.386 0 .7.321.7.717s-.313.716-.7.716c-.386 0-.7-.321-.7-.716s.314-.717.7-.717m-1.399-.717c-.386 0-.7-.321-.7-.716s.314-.717.7-.717c.386 0 .7.321.7.717s-.314.716-.7.716m0 4.3c-.386 0-.7-.321-.7-.717s.314-.717.7-.717c.386 0 .7.321.7.717s-.314.717-.7.717m0 2.867c.386 0 .7.321.7.716a.709.709 0 01-.7.717.709.709 0 01-.7-.717.708.708 0 01.7-.716m-1.4-2.15c.386 0 .7.321.7.717a.708.708 0 01-.7.716.709.709 0 01-.7-.716c0-.396.313-.717.7-.717m0-4.3c.386 0 .7.321.7.717s-.313.716-.7.716c-.386 0-.7-.321-.7-.716s.313-.717.7-.717m-1.4-.717c-.386 0-.7-.321-.7-.716s.313-.717.7-.717c.386 0 .7.321.7.717s-.314.716-.7.716m0 4.3c-.386 0-.7-.321-.7-.717s.313-.717.7-.717c.386 0 .7.321.7.717s-.314.717-.7.717m0 2.867c.386 0 .7.321.7.716a.709.709 0 01-.7.717.709.709 0 01-.7-.717c0-.395.313-.716.7-.716m-2.1-5.734c0-.396.313-.717.7-.717.386 0 .7.321.7.717s-.314.716-.7.716a.707.707 0 01-.7-.716m.7 3.584c.386 0 .7.321.7.717a.709.709 0 01-.7.716.709.709 0 01-.7-.716c0-.396.313-.717.7-.717m-1.4-.717c-.386 0-.7-.321-.7-.717s.314-.717.7-.717.7.321.7.717-.314.717-.7.717m0 2.867c.386 0 .7.321.7.716 0 .396-.314.717-.7.717s-.7-.321-.7-.717c0-.395.314-.716.7-.716m-2.1-5.734c0-.396.313-.717.7-.717.386 0 .7.321.7.717s-.314.716-.7.716a.708.708 0 01-.7-.716m.7 3.584c.386 0 .7.321.7.717a.709.709 0 01-.7.716.709.709 0 01-.7-.716c0-.396.314-.717.7-.717m-1.4-.717c-.386 0-.7-.321-.7-.717s.314-.717.7-.717.7.321.7.717-.314.717-.7.717m0 2.867c.386 0 .7.321.7.716 0 .396-.314.717-.7.717s-.7-.321-.7-.717c0-.395.314-.716.7-.716m-1.4-2.15c.386 0 .7.321.7.717 0 .395-.313.716-.7.716s-.7-.321-.7-.716c0-.396.314-.717.7-.717m0-4.3c.386 0 .7.321.7.717s-.313.716-.7.716-.7-.321-.7-.716.314-.717.7-.717m-1.4-.717c-.386 0-.7-.321-.7-.716s.314-.717.7-.717.7.321.7.717-.313.716-.7.716m0 4.3c-.386 0-.7-.321-.7-.717s.314-.717.7-.717.7.321.7.717-.313.717-.7.717m0 2.867c.386 0 .7.321.7.716 0 .396-.314.717-.7.717s-.7-.321-.7-.717c0-.395.314-.716.7-.716M7 29.383c0-.396.314-.717.7-.717.386 0 .7.321.7.717s-.314.717-.701.717A.708.708 0 017 29.383m.699 3.584c.386 0 .7.321.7.717a.708.708 0 01-.7.716.709.709 0 01-.7-.716.71.71 0 01.7-.717M6.3 32.25c-.386 0-.7-.321-.7-.717s.314-.717.7-.717.7.322.7.717-.314.717-.7.717M4.9 34.4a.709.709 0 01-.7-.716c0-.396.314-.717.7-.717.386 0 .7.321.7.717a.709.709 0 01-.7.716m1.4.717c.386 0 .7.321.7.716 0 .396-.314.717-.7.717s-.7-.321-.7-.717c0-.395.313-.716.7-.716m18.198-2.15c.386 0 .7.321.7.717a.708.708 0 01-.7.716.709.709 0 01-.7-.716c0-.396.314-.717.7-.717m3.486 6.308c-.1-.51-2.368-11.737-7.447-17.775h-4.439c-.006.791-.635 1.433-1.409 1.433h-1.38c-.774 0-1.403-.642-1.409-1.433H7.461C2.382 27.538.114 38.765.014 39.275a.718.718 0 00.494.831C.912 40.224 10.442 43 13.999 43s13.087-2.776 13.491-2.894a.718.718 0 00.494-.831"/></svg>