<svg xmlns="http://www.w3.org/2000/svg" width="42.022" height="42.026"><path fill="#FFF" d="M41.936 23.438L33.441 9.497a4.848 4.848 0 01-.894 1.608c-.894.983-2.235 1.519-3.934 1.698h-.805c-2.414 0-4.739-.983-6.08-2.502-.089-.089-.179-.179-.179-.268a3.95 3.95 0 01-1.073 1.34c-.715.625-1.609.804-2.235 1.072-.984.269-2.325.626-3.577.626a5.896 5.896 0 01-2.861-.715c-.626-.358-.983-.805-1.341-1.251a9.862 9.862 0 01-1.61-2.502c-.089.268-.268.626-.358.894L.089 23.438c-.178.357-.089.714.269.983.894.715 2.772 1.876 4.828 1.34.268-.089.447-.179.626-.357.894-1.162 4.918-6.167 6.527-9.473.089-.268.626-.179.626.089-.269 3.753-1.52 12.422-7.153 25.112-.179.357.268.715.715.625 1.967-.357 6.438-.715 14.217.268 7.958-.983 12.607-.537 14.575-.268.536.089.894-.269.715-.625-5.812-12.78-7.064-21.448-7.332-25.202 0-.268.537-.357.626-.089 1.609 3.307 5.722 8.311 6.706 9.473.179.179.358.268.626.357 2.056.536 4.023-.625 4.918-1.341.447-.178.536-.624.358-.892z"/><path fill="#FFF" d="M12.786 10.748c1.341.804 3.219.357 4.828-.089.537-.179 1.162-.357 1.609-.715.537-.447.715-.983.715-1.608.089-1.609-.984-3.128-1.162-4.737 0-.179 0-.447.09-.625.179-.268.536-.357.894-.447.715-.089 1.52-.268 2.235-.268.715.089 1.52.447 1.609.983s-.358.983-.715 1.43c-.983 1.34-.894 3.127.268 4.378 1.162 1.251 3.219 1.966 5.275 1.788 1.073-.089 2.056-.447 2.683-1.072.536-.626.715-1.43.715-2.145.179-1.608.179-3.217-.894-4.647-.984-1.251-2.861-2.055-4.739-2.502C21.637-.6 16.361.204 12.695 2.438c-.894.536-1.788 1.251-2.235 2.056-.984 1.787.089 3.753 1.43 5.362.27.355.539.623.896.892z"/></svg>