<svg xmlns="http://www.w3.org/2000/svg" width="38.002" height="36.009"><path fill="#FFF" d="M36.526 19.548c-.886-6.237-4.344-13.939-4.471-14.274a1.007 1.007 0 00-.422-.418l-6.537-2.972c.886 1.214 1.688 2.679 1.813 4.354.127 2.051-.464 2.553-1.012 2.595h-.042c-.506 0-1.012-.335-1.012-.335s1.898 1.59 1.181 3.893c-.464 1.423-1.687 2.93-2.953 5.232-.759 1.381-1.476 3.056-2.066 5.19a49.943 49.943 0 00-1.139 4.939v6.572c1.519.502 4.26 1.298 6.326 1.298 3.037 0 3.374-1.716 3.374-2.47 0-2.219-.59-4.186-1.054-5.777-.337-1.088-.59-2.051-.59-2.72.042-.921.548-3.307 1.054-5.358.295 1.256.632 2.93.97 4.897.801 4.981.97 10.967.97 11.009 0 .209.084.461.253.586.169.168.38.251.633.209l5.398-.293a.871.871 0 00.801-.879c-.294-4.771-.547-8.915-1.475-15.278zM14.764 2.01c0 .125-.042.209-.042.334-.042.209-.084.46-.084.711-.169 1.591-.169 3.475.379 5.442a96.558 96.558 0 001.687 5.441c1.181 3.516 2.362 6.614 2.362 6.614s1.139-3.098 2.32-6.614c.59-1.841 1.223-3.767 1.687-5.441.928-3.391.253-6.614-.21-8.246A3.871 3.871 0 0021.512 0h-5.061c-.464 0-.886.084-1.265.251-.126.461-.295 1.047-.422 1.759zm2.151 26.831a1.31 1.31 0 01-1.308-1.298 1.31 1.31 0 011.308-1.297c.464 0 .886.251 1.097.586-.253-1.256-.591-2.595-1.012-4.102-1.561-5.651-4.302-8.121-5.019-10.423-.675-2.051.801-3.558 1.097-3.809a2.126 2.126 0 01-.844.293h-.168c-.59 0-1.223-.502-1.054-2.595.126-1.632.928-3.14 1.813-4.354L6.329 4.856a1.01 1.01 0 00-.421.418c-.127.335-3.585 8.037-4.513 14.274C.51 25.91.256 30.054.003 34.784c-.042.46.337.837.801.879l5.398.293h.042c.211 0 .422-.084.59-.209a.822.822 0 00.253-.586c0-.042.168-6.028.97-11.009.295-1.967.674-3.642.97-4.897.506 2.051 1.054 4.437 1.054 5.358 0 .669-.253 1.59-.59 2.679-.464 1.591-1.054 3.558-1.054 5.776 0 .753.337 2.47 3.374 2.47 2.066 0 4.808-.795 6.326-1.298v-6.195c-.21.503-.674.796-1.222.796z"/></svg>