<svg xmlns="http://www.w3.org/2000/svg" width="29.042" height="42"><path fill="#FFF" d="M26.925 29.462a30.605 30.605 0 01-1.603-5.197c-3.155 1.367-7.51 2.401-10.781 2.401-3.214 0-7.67-.982-10.846-2.313a31.207 31.207 0 01-1.693 5.207c6.965 4.119 18.011 4.059 24.923-.098z"/><path fill="#FFF" d="M4.549 17.13a34.176 34.176 0 01-.505 5.511c5.87 2.564 15.158 2.522 20.958-.101a34.844 34.844 0 01-.425-5.424c-3.039 1.022-7.177 1.535-10.033 1.535-2.82.001-6.958-.519-9.995-1.521zm23.709 15.947a24.69 24.69 0 00-.694-2.015c-3.729 2.184-8.867 3.646-13.028 3.646-4.139 0-9.432-1.396-13.188-3.558-.26.66-.494 1.311-.665 1.927-1.098 3.892-.549 8.014-.524 8.186.051.42.414.737.837.737H28.14a.842.842 0 00.836-.78c.017-.172.363-4.269-.718-8.143z"/><path fill="#FFF" d="M4.118 15.147c5.665 2.366 15.302 2.372 20.908-.03.023-.039.04-.078.065-.117a6.264 6.264 0 00.903-4.191c-.354-2.666-2.415-4.852-5.017-5.306-.084-.015-.168-.021-.252-.032V.857A.85.85 0 0019.881 0a.85.85 0 00-.844.857v4.604a6.06 6.06 0 00-2.949 1.268c-.287.231-.743.506-1.309.506-.684-.009-1.351-.223-1.866-.608a6.057 6.057 0 00-2.821-1.164V.857C10.091.384 9.714 0 9.247 0s-.845.384-.845.857v4.608c-.078.011-.157.015-.236.029-2.602.446-4.67 2.623-5.025 5.289A6.28 6.28 0 004.036 15c.031.049.053.098.082.147z"/></svg>