<svg xmlns="http://www.w3.org/2000/svg" width="36.893" height="44.956"><path fill="#FFF" d="M15.495 34.229l18.314-7.675 3.083 6.354-12.905 6.063-8.492-4.742zM3.584 0a20.898 20.898 0 00-1.282 2.129 32.044 32.044 0 0020.805 0A20.934 20.934 0 0021.821 0 29.286 29.286 0 013.584 0zm9.098 1.854c.477-.012.874.337.887.781v.025c.001.443-.386.803-.863.803s-.864-.359-.864-.803c-.002-.437.371-.794.84-.806z"/><path fill="#FFF" d="M20.693 4.517l2.568 3.016c.218 1.007.351 2.028.397 3.055l-4.831-5.674a33.98 33.98 0 01-5.262.545v4.447c0 .99-.705 1.861-1.728 2.136V5.458a34.09 34.09 0 01-5.261-.545l-4.831 5.674c.047-1.026.18-2.047.399-3.054l2.568-3.017A33.415 33.415 0 011.603 3.6 19.783 19.783 0 00.479 15.719a56.797 56.797 0 011.112 17.905L.492 44.956h7.859l4.009-27.577c.026-.175.2-.299.389-.275a.333.333 0 01.296.275l2.208 15.189 8.304-3.48a56.896 56.896 0 011.369-13.37 19.777 19.777 0 00-1.124-12.117 33.112 33.112 0 01-3.109.916z"/></svg>