<svg xmlns="http://www.w3.org/2000/svg" width="42" height="32.001"><path fill="#FFF" d="M28.059.017c-.483 0-.888.28-.953.755-.407 2.98-2.979 5.243-6.092 5.243-3.113 0-5.684-2.243-6.091-5.223-.064-.477-.472-.775-.955-.775H8.837l-.845 30.919c-.007.26.09.551.272.735.182.185.431.33.69.33h24.121c.259 0 .508-.183.69-.366a.893.893 0 00.273-.662L33.195.017h-5.136zM0 3.208v8.217c0 .314.223.609.481.786.261.179.626.219.921.108L7 10.243V.004L.69 2.312c-.375.139-.69.497-.69.896zm41.321-.896L35 0v10.24l5.592 2.081c.295.111.68.071.939-.108.262-.179.469-.474.469-.787V3.208c0-.399-.301-.757-.679-.896z"/></svg>