<svg xmlns="http://www.w3.org/2000/svg" width="19" height="19"><path fill="#0C0E0F" d="M13.153 8.038c0-1.408-.5-2.613-1.501-3.614S9.446 2.923 8.038 2.923s-2.613.5-3.614 1.501S2.923 6.63 2.923 8.038s.5 2.613 1.501 3.614 2.206 1.501 3.614 1.501 2.613-.5 3.614-1.501 1.501-2.205 1.501-3.614zm5.847 9.5c0 .396-.145.738-.434 1.027-.29.29-.632.435-1.028.435-.411 0-.753-.145-1.027-.434l-3.917-3.905a7.819 7.819 0 01-4.556 1.416 7.894 7.894 0 01-3.123-.634 8.025 8.025 0 01-2.569-1.713 8.017 8.017 0 01-1.712-2.569A7.887 7.887 0 010 8.038c0-1.089.211-2.13.634-3.123.422-.993.993-1.85 1.712-2.569S3.922 1.055 4.915.633A7.911 7.911 0 018.038 0c1.089 0 2.13.211 3.123.634.993.422 1.85.994 2.569 1.713a8.033 8.033 0 011.712 2.569c.423.993.634 2.034.634 3.123a7.819 7.819 0 01-1.416 4.556l3.916 3.917c.283.28.424.623.424 1.026z"/></svg>