<svg xmlns="http://www.w3.org/2000/svg" width="46.994" height="18.748"><path fill="none" stroke="#BABABA" stroke-miterlimit="10" d="M46.494 12.578a5.67 5.67 0 01-5.669 5.67H6.169A5.67 5.67 0 01.5 12.578V6.169A5.669 5.669 0 016.169.5h34.656a5.669 5.669 0 015.669 5.669v6.409z"/><path d="M18.283 16.03v-3.18h-5.761v-1.495l6.06-8.606h1.332v8.606h1.793v1.495h-1.793v3.18h-1.631zm0-4.675V5.367l-4.158 5.988h4.158zm7.6-2.527c-.677-.248-1.178-.601-1.504-1.06-.325-.459-.489-1.009-.489-1.648 0-.967.348-1.779 1.042-2.437s1.618-.987 2.772-.987c1.159 0 2.092.336 2.799 1.01.706.673 1.06 1.494 1.06 2.46 0 .616-.161 1.152-.485 1.608-.322.456-.813.807-1.471 1.055.814.266 1.435.695 1.861 1.287.426.592.639 1.299.639 2.119 0 1.136-.402 2.09-1.206 2.863-.802.772-1.859 1.159-3.169 1.159-1.311 0-2.367-.388-3.171-1.164s-1.205-1.743-1.205-2.903c0-.864.219-1.587.656-2.169.438-.584 1.061-.982 1.871-1.193zm-.852 3.369c0 .465.11.915.331 1.35.221.436.548.771.982 1.011.436.238.903.357 1.404.357.778 0 1.422-.25 1.93-.751.507-.501.76-1.139.76-1.911 0-.786-.261-1.436-.783-1.949-.522-.513-1.176-.77-1.96-.77-.768 0-1.403.254-1.907.761-.505.508-.757 1.143-.757 1.902zm.526-6.132c0 .628.202 1.141.606 1.54.405.399.931.598 1.577.598.628 0 1.143-.198 1.544-.594.401-.396.603-.88.603-1.454 0-.598-.207-1.101-.621-1.508-.413-.408-.928-.611-1.544-.611-.622 0-1.139.199-1.549.598a1.921 1.921 0 00-.616 1.431z" fill="#BABABA"/></svg>