<svg xmlns="http://www.w3.org/2000/svg" width="46.994" height="18.748"><path fill="none" stroke="#EF7F1A" stroke-miterlimit="10" d="M46.494 12.578a5.67 5.67 0 01-5.669 5.67H6.169A5.67 5.67 0 01.5 12.578V6.169A5.669 5.669 0 016.169.5h34.656a5.669 5.669 0 015.669 5.669v6.409z"/><path d="M18.266 15.864v-3.108h-5.632v-1.461l5.924-8.412h1.302v8.412h1.753v1.461H19.86v3.108h-1.594zm0-4.569V5.442l-4.064 5.853h4.064zm10.085 4.569v-3.108H22.72v-1.461l5.923-8.412h1.303v8.412h1.753v1.461h-1.753v3.108h-1.595zm0-4.569V5.442l-4.063 5.853h4.063z" fill="#EF7F1A"/></svg>