<svg xmlns="http://www.w3.org/2000/svg" width="46.994" height="18.748"><path fill="none" stroke="#BABABA" stroke-miterlimit="10" d="M46.494 12.578a5.67 5.67 0 01-5.669 5.67H6.169A5.67 5.67 0 01.5 12.578V6.169A5.669 5.669 0 016.169.5h34.656a5.669 5.669 0 015.669 5.669v6.409z"/><path d="M18.178 15.905v-3.06h-5.544v-1.44l5.832-8.28h1.282v8.28h1.726v1.44h-1.726v3.06h-1.57zm0-4.5V5.644l-4.001 5.762h4.001zM31.22 6.254l-1.561.122c-.139-.616-.338-1.063-.592-1.342a2.078 2.078 0 00-1.57-.671c-.5 0-.938.14-1.316.418-.494.361-.881.886-1.168 1.578-.283.692-.432 1.676-.443 2.955.377-.575.84-1.002 1.387-1.281a3.711 3.711 0 011.717-.418c1.045 0 1.936.385 2.67 1.155.736.77 1.104 1.766 1.104 2.985a4.91 4.91 0 01-.518 2.236c-.348.689-.822 1.216-1.426 1.582s-1.291.549-2.057.549c-1.309 0-2.375-.479-3.199-1.441-.827-.963-1.239-2.548-1.239-4.756 0-2.47.456-4.266 1.368-5.387.797-.977 1.869-1.465 3.219-1.465 1.004 0 1.828.282 2.471.846.639.563 1.026 1.341 1.153 2.335zm-6.407 5.51c0 .54.113 1.058.344 1.551.229.494.551.872.965 1.13.412.259.844.389 1.299.389.662 0 1.23-.268 1.707-.803.477-.534.713-1.261.713-2.179 0-.884-.234-1.58-.703-2.088-.473-.51-1.065-.764-1.78-.764a2.42 2.42 0 00-1.805.763c-.493.508-.74 1.175-.74 2.001z" fill="#BABABA"/></svg>