<svg xmlns="http://www.w3.org/2000/svg" width="24.006" height="22"><path fill="#0C0E0F" d="M.8 0C.358 0 0 .369 0 .825c0 .456.358.825.8.825h2.552l2.751 13.38c.109.503.429.923.834.92h13.342c.423.006.812-.389.812-.825s-.389-.831-.812-.825H7.588l-.342-1.65h14.1a.833.833 0 00.776-.644l1.868-8.25c.104-.479-.299-1.002-.776-1.005H5.22L4.786.653C4.71.287 4.366 0 4.002 0H.8zm4.754 4.4h4.853v2.475H6.062L5.554 4.4zm6.453 0h3.736v2.475h-3.736V4.4zm5.337 0h4.861l-.559 2.475h-4.303V4.4zM6.404 8.525h4.002V11H6.913l-.509-2.475zm5.603 0h3.736V11h-3.736V8.525zm5.337 0h3.928L20.713 11h-3.369V8.525zM9.606 16.5c-1.464 0-2.668 1.241-2.668 2.75S8.142 22 9.606 22c1.464 0 2.668-1.241 2.668-2.75S11.07 16.5 9.606 16.5zm8.005 0c-1.464 0-2.668 1.241-2.668 2.75S16.147 22 17.611 22c1.464 0 2.668-1.241 2.668-2.75s-1.204-2.75-2.668-2.75zm-8.005 1.65c.599 0 1.067.483 1.067 1.1 0 .617-.468 1.1-1.067 1.1s-1.067-.483-1.067-1.1c0-.617.468-1.1 1.067-1.1zm8.005 0c.599 0 1.067.483 1.067 1.1 0 .617-.468 1.1-1.067 1.1s-1.067-.483-1.067-1.1c-.001-.617.468-1.1 1.067-1.1z"/></svg>