<?xml version="1.0" encoding="utf-8"?>
<!-- Generator: Adobe Illustrator 16.0.0, SVG Export Plug-In . SVG Version: 6.00 Build 0)  -->
<!DOCTYPE svg PUBLIC "-//W3C//DTD SVG 1.1//EN" "http://www.w3.org/Graphics/SVG/1.1/DTD/svg11.dtd">
<svg version="1.1" id="Слой_1" xmlns="http://www.w3.org/2000/svg" xmlns:xlink="http://www.w3.org/1999/xlink" x="0px" y="0px"
	 width="27.998px" height="43px" viewBox="0 0 27.998 43" enable-background="new 0 0 27.998 43" xml:space="preserve">
<path fill="#FFFFFF" d="M20.016,8.071c0.507,0.144,0.981,0.365,1.388,0.662l0.683,0.5c0.761-0.795,1.714-1.953,1.714-2.783
	c0-1.926-1.44-2.827-3.239-3.242L20.016,8.071z"/>
<path fill="#FFFFFF" d="M8.399,20.066h3.5v-1.434h-3.5V20.066z"/>
<path fill="#FFFFFF" d="M9.421,7.877c0.36,0.003,0.724,0.041,1.086,0.118c1.353,0.287,2.565,1.066,3.491,2.228
	c0.927-1.162,2.139-1.941,3.492-2.229c0.379-0.081,0.761-0.116,1.138-0.115l0.55-4.903c-0.803-0.087-1.623-0.11-2.381-0.11
	c-0.386,0-0.7-0.322-0.7-0.717V0.717c0-0.396-0.313-0.717-0.7-0.717h-2.8c-0.387,0-0.7,0.32-0.7,0.717V2.15
	c0,0.395-0.313,0.717-0.7,0.717c-0.626,0-1.295,0.019-1.963,0.073L9.421,7.877z"/>
<path fill="#FFFFFF" d="M17.775,9.398c-1.281,0.271-2.41,1.138-3.177,2.438c-0.254,0.43-0.945,0.43-1.199,0
	c-0.766-1.3-1.894-2.166-3.176-2.438C9.192,9.179,8.136,9.366,7.406,9.9l-1.079,0.664c0.149,3.372,0.883,5.465,1.479,6.637H11.9
	c0.005-0.792,0.634-1.434,1.408-1.434h1.381c0.774,0,1.403,0.642,1.408,1.434h4.095c0.589-1.158,1.312-3.216,1.472-6.516
	l-1.073-0.785C19.861,9.367,18.809,9.18,17.775,9.398"/>
<path fill="#FFFFFF" d="M14.699,21.49v-0.707v-2.867v-0.708l-1.39-0.009l-0.01,4.29l1.39,0.01
	C14.694,21.5,14.699,21.495,14.699,21.49"/>
<path fill="#FFFFFF" d="M16.099,20.066h3.5v-1.434h-3.5V20.066z"/>
<path fill="#FFFFFF" d="M6.639,8.702C7.038,8.41,7.513,8.194,8.027,8.055L7.843,3.121C5.858,3.493,4.197,4.38,4.197,6.449
	c0,0.812,0.911,1.938,1.664,2.73L6.639,8.702z"/>
<path fill="#FFFFFF" d="M25.898,36.55c-0.386,0-0.7-0.321-0.7-0.717c0-0.396,0.314-0.716,0.7-0.716c0.386,0,0.7,0.321,0.7,0.716
	C26.598,36.229,26.284,36.55,25.898,36.55 M24.498,38.7c-0.386,0-0.7-0.321-0.7-0.717s0.314-0.717,0.7-0.717
	c0.386,0,0.7,0.321,0.7,0.717S24.885,38.7,24.498,38.7 M23.098,40.85c-0.386,0-0.7-0.321-0.7-0.717s0.314-0.717,0.7-0.717
	c0.386,0,0.7,0.321,0.7,0.717S23.485,40.85,23.098,40.85 M21.698,38.7c-0.386,0-0.7-0.321-0.7-0.717s0.313-0.717,0.7-0.717
	c0.386,0,0.7,0.321,0.7,0.717S22.085,38.7,21.698,38.7 M20.299,40.85c-0.386,0-0.7-0.321-0.7-0.717s0.314-0.717,0.7-0.717
	c0.386,0,0.7,0.321,0.7,0.717S20.685,40.85,20.299,40.85 M18.899,38.7c-0.386,0-0.7-0.321-0.7-0.717s0.313-0.717,0.7-0.717
	c0.386,0,0.7,0.321,0.7,0.717S19.285,38.7,18.899,38.7 M17.499,40.85c-0.386,0-0.7-0.321-0.7-0.717s0.313-0.717,0.7-0.717
	c0.386,0,0.7,0.321,0.7,0.717S17.885,40.85,17.499,40.85 M16.099,38.7c-0.386,0-0.7-0.321-0.7-0.717s0.313-0.717,0.7-0.717
	c0.386,0,0.7,0.321,0.7,0.717S16.485,38.7,16.099,38.7 M14.699,40.85c-0.386,0-0.7-0.321-0.7-0.717s0.314-0.717,0.7-0.717
	s0.7,0.321,0.7,0.717S15.085,40.85,14.699,40.85 M13.299,38.7c-0.386,0-0.7-0.321-0.7-0.717s0.313-0.717,0.7-0.717
	c0.386,0,0.7,0.321,0.7,0.717S13.685,38.7,13.299,38.7 M11.899,40.85c-0.386,0-0.7-0.321-0.7-0.717s0.314-0.717,0.7-0.717
	s0.7,0.321,0.7,0.717S12.285,40.85,11.899,40.85 M10.499,38.7c-0.386,0-0.7-0.321-0.7-0.717s0.313-0.717,0.7-0.717
	s0.7,0.321,0.7,0.717S10.886,38.7,10.499,38.7 M9.099,40.85c-0.386,0-0.7-0.321-0.7-0.717s0.314-0.717,0.7-0.717
	s0.7,0.321,0.7,0.717S9.486,40.85,9.099,40.85 M7.699,38.7c-0.386,0-0.7-0.321-0.7-0.717s0.314-0.717,0.7-0.717
	c0.386,0,0.7,0.321,0.7,0.717S8.086,38.7,7.699,38.7 M6.3,40.85c-0.386,0-0.7-0.321-0.7-0.717s0.314-0.717,0.7-0.717
	S7,39.738,7,40.133S6.686,40.85,6.3,40.85 M4.9,38.7c-0.386,0-0.7-0.321-0.7-0.717s0.314-0.717,0.7-0.717
	c0.386,0,0.7,0.321,0.7,0.717S5.286,38.7,4.9,38.7 M3.5,36.55c-0.386,0-0.7-0.321-0.7-0.717c0-0.396,0.314-0.716,0.7-0.716
	c0.386,0,0.7,0.321,0.7,0.716C4.2,36.229,3.886,36.55,3.5,36.55 M2.1,38.7c-0.386,0-0.7-0.321-0.7-0.717s0.314-0.717,0.7-0.717
	c0.386,0,0.7,0.321,0.7,0.717S2.486,38.7,2.1,38.7 M3.5,30.816c0.386,0,0.7,0.321,0.7,0.717S3.886,32.25,3.5,32.25
	c-0.386,0-0.7-0.321-0.7-0.717S3.114,30.816,3.5,30.816 M4.9,28.667c0.386,0,0.7,0.321,0.7,0.717S5.286,30.1,4.9,30.1
	c-0.386,0-0.7-0.321-0.7-0.716S4.513,28.667,4.9,28.667 M6.3,26.517c0.386,0,0.7,0.321,0.7,0.717S6.686,27.95,6.3,27.95
	s-0.7-0.321-0.7-0.716S5.913,26.517,6.3,26.517 M7.699,24.367c0.386,0,0.7,0.321,0.7,0.716c0,0.396-0.313,0.717-0.7,0.717
	c-0.386,0-0.7-0.321-0.7-0.717C7,24.688,7.313,24.367,7.699,24.367 M9.099,22.217c0.386,0,0.7,0.321,0.7,0.716
	s-0.314,0.717-0.7,0.717s-0.7-0.321-0.7-0.717S8.713,22.217,9.099,22.217 M10.499,24.367c0.386,0,0.7,0.321,0.7,0.716
	c0,0.396-0.313,0.717-0.7,0.717s-0.7-0.321-0.7-0.717C9.799,24.688,10.113,24.367,10.499,24.367 M11.899,26.517
	c0.386,0,0.7,0.321,0.7,0.717s-0.314,0.716-0.7,0.716s-0.7-0.321-0.7-0.716S11.513,26.517,11.899,26.517 M13.299,24.367
	c0.386,0,0.7,0.321,0.7,0.716c0,0.396-0.314,0.717-0.7,0.717c-0.386,0-0.7-0.321-0.7-0.717
	C12.599,24.688,12.913,24.367,13.299,24.367 M14.699,26.517c0.386,0,0.7,0.321,0.7,0.717s-0.314,0.716-0.7,0.716
	s-0.7-0.321-0.7-0.716S14.313,26.517,14.699,26.517 M16.099,24.367c0.386,0,0.7,0.321,0.7,0.716c0,0.396-0.314,0.717-0.7,0.717
	c-0.386,0-0.7-0.321-0.7-0.717C15.399,24.688,15.712,24.367,16.099,24.367 M17.499,22.217c0.386,0,0.7,0.321,0.7,0.716
	s-0.314,0.717-0.7,0.717c-0.386,0-0.7-0.321-0.7-0.717S17.112,22.217,17.499,22.217 M18.899,24.367c0.386,0,0.7,0.321,0.7,0.716
	c0,0.396-0.313,0.717-0.7,0.717c-0.386,0-0.7-0.321-0.7-0.717C18.199,24.688,18.512,24.367,18.899,24.367 M20.299,22.217
	c0.386,0,0.7,0.321,0.7,0.716s-0.314,0.717-0.7,0.717c-0.386,0-0.7-0.321-0.7-0.717S19.912,22.217,20.299,22.217 M21.698,24.367
	c0.386,0,0.7,0.321,0.7,0.716c0,0.396-0.313,0.717-0.7,0.717c-0.386,0-0.7-0.321-0.7-0.717
	C20.999,24.688,21.312,24.367,21.698,24.367 M23.098,26.517c0.386,0,0.7,0.321,0.7,0.717s-0.313,0.716-0.7,0.716
	c-0.386,0-0.7-0.321-0.7-0.716S22.712,26.517,23.098,26.517 M23.098,32.25c-0.386,0-0.7-0.321-0.7-0.717s0.314-0.717,0.7-0.717
	c0.386,0,0.7,0.321,0.7,0.717S23.485,32.25,23.098,32.25 M23.098,35.117c0.386,0,0.7,0.321,0.7,0.716c0,0.396-0.313,0.717-0.7,0.717
	c-0.386,0-0.7-0.321-0.7-0.717C22.398,35.438,22.712,35.117,23.098,35.117 M21.698,32.967c0.386,0,0.7,0.321,0.7,0.717
	c0,0.395-0.313,0.716-0.7,0.716c-0.386,0-0.7-0.321-0.7-0.716C20.999,33.288,21.312,32.967,21.698,32.967 M21.698,28.667
	c0.386,0,0.7,0.321,0.7,0.717s-0.313,0.716-0.7,0.716c-0.386,0-0.7-0.321-0.7-0.716S21.312,28.667,21.698,28.667 M20.299,27.95
	c-0.386,0-0.7-0.321-0.7-0.716s0.314-0.717,0.7-0.717c0.386,0,0.7,0.321,0.7,0.717S20.685,27.95,20.299,27.95 M20.299,32.25
	c-0.386,0-0.7-0.321-0.7-0.717s0.314-0.717,0.7-0.717c0.386,0,0.7,0.321,0.7,0.717S20.685,32.25,20.299,32.25 M20.299,35.117
	c0.386,0,0.7,0.321,0.7,0.716c0,0.396-0.314,0.717-0.7,0.717c-0.386,0-0.7-0.321-0.7-0.717
	C19.598,35.438,19.912,35.117,20.299,35.117 M18.899,32.967c0.386,0,0.7,0.321,0.7,0.717c0,0.395-0.313,0.716-0.7,0.716
	c-0.386,0-0.7-0.321-0.7-0.716C18.199,33.288,18.512,32.967,18.899,32.967 M18.899,28.667c0.386,0,0.7,0.321,0.7,0.717
	s-0.313,0.716-0.7,0.716c-0.386,0-0.7-0.321-0.7-0.716S18.512,28.667,18.899,28.667 M17.499,27.95c-0.386,0-0.7-0.321-0.7-0.716
	s0.313-0.717,0.7-0.717c0.386,0,0.7,0.321,0.7,0.717S17.885,27.95,17.499,27.95 M17.499,32.25c-0.386,0-0.7-0.321-0.7-0.717
	s0.313-0.717,0.7-0.717c0.386,0,0.7,0.321,0.7,0.717S17.885,32.25,17.499,32.25 M17.499,35.117c0.386,0,0.7,0.321,0.7,0.716
	c0,0.396-0.314,0.717-0.7,0.717c-0.386,0-0.7-0.321-0.7-0.717C16.799,35.438,17.112,35.117,17.499,35.117 M15.399,29.383
	c0-0.396,0.313-0.717,0.7-0.717c0.386,0,0.7,0.321,0.7,0.717s-0.314,0.716-0.7,0.716C15.712,30.1,15.399,29.779,15.399,29.383
	 M16.099,32.967c0.386,0,0.7,0.321,0.7,0.717c0,0.395-0.314,0.716-0.7,0.716c-0.386,0-0.7-0.321-0.7-0.716
	C15.399,33.288,15.712,32.967,16.099,32.967 M14.699,32.25c-0.386,0-0.7-0.321-0.7-0.717s0.314-0.717,0.7-0.717s0.7,0.321,0.7,0.717
	S15.085,32.25,14.699,32.25 M14.699,35.117c0.386,0,0.7,0.321,0.7,0.716c0,0.396-0.314,0.717-0.7,0.717s-0.7-0.321-0.7-0.717
	C13.999,35.438,14.313,35.117,14.699,35.117 M12.599,29.383c0-0.396,0.313-0.717,0.7-0.717c0.386,0,0.7,0.321,0.7,0.717
	s-0.314,0.716-0.7,0.716C12.913,30.1,12.599,29.779,12.599,29.383 M13.299,32.967c0.386,0,0.7,0.321,0.7,0.717
	c0,0.395-0.314,0.716-0.7,0.716c-0.386,0-0.7-0.321-0.7-0.716C12.599,33.288,12.913,32.967,13.299,32.967 M11.899,32.25
	c-0.386,0-0.7-0.321-0.7-0.717s0.314-0.717,0.7-0.717s0.7,0.321,0.7,0.717S12.285,32.25,11.899,32.25 M11.899,35.117
	c0.386,0,0.7,0.321,0.7,0.716c0,0.396-0.314,0.717-0.7,0.717s-0.7-0.321-0.7-0.717C11.199,35.438,11.513,35.117,11.899,35.117
	 M10.499,32.967c0.386,0,0.7,0.321,0.7,0.717c0,0.395-0.313,0.716-0.7,0.716s-0.7-0.321-0.7-0.716
	C9.799,33.288,10.113,32.967,10.499,32.967 M10.499,28.667c0.386,0,0.7,0.321,0.7,0.717s-0.313,0.716-0.7,0.716
	s-0.7-0.321-0.7-0.716S10.113,28.667,10.499,28.667 M9.099,27.95c-0.386,0-0.7-0.321-0.7-0.716s0.314-0.717,0.7-0.717
	s0.7,0.321,0.7,0.717S9.486,27.95,9.099,27.95 M9.099,32.25c-0.386,0-0.7-0.321-0.7-0.717s0.314-0.717,0.7-0.717
	s0.7,0.321,0.7,0.717S9.486,32.25,9.099,32.25 M9.099,35.117c0.386,0,0.7,0.321,0.7,0.716c0,0.396-0.314,0.717-0.7,0.717
	s-0.7-0.321-0.7-0.717C8.399,35.438,8.713,35.117,9.099,35.117 M7,29.383c0-0.396,0.314-0.717,0.7-0.717
	c0.386,0,0.7,0.321,0.7,0.717S8.086,30.1,7.699,30.1C7.313,30.1,7,29.779,7,29.383 M7.699,32.967c0.386,0,0.7,0.321,0.7,0.717
	c0,0.395-0.313,0.716-0.7,0.716c-0.386,0-0.7-0.321-0.7-0.716C7,33.288,7.313,32.967,7.699,32.967 M6.3,32.25
	c-0.386,0-0.7-0.321-0.7-0.717s0.314-0.717,0.7-0.717S7,31.138,7,31.533S6.686,32.25,6.3,32.25 M4.9,34.4
	c-0.386,0-0.7-0.321-0.7-0.716c0-0.396,0.314-0.717,0.7-0.717c0.386,0,0.7,0.321,0.7,0.717C5.6,34.079,5.286,34.4,4.9,34.4
	 M6.3,35.117c0.386,0,0.7,0.321,0.7,0.716c0,0.396-0.314,0.717-0.7,0.717s-0.7-0.321-0.7-0.717C5.6,35.438,5.913,35.117,6.3,35.117
	 M24.498,32.967c0.386,0,0.7,0.321,0.7,0.717c0,0.395-0.313,0.716-0.7,0.716c-0.386,0-0.7-0.321-0.7-0.716
	C23.798,33.288,24.112,32.967,24.498,32.967 M27.984,39.275c-0.1-0.51-2.368-11.737-7.447-17.775h-4.439
	c-0.006,0.791-0.635,1.433-1.409,1.433h-1.38c-0.774,0-1.403-0.642-1.409-1.433H7.461c-5.079,6.038-7.347,17.265-7.447,17.775
	c-0.073,0.366,0.143,0.728,0.494,0.831C0.912,40.224,10.442,43,13.999,43s13.087-2.776,13.491-2.894
	C27.841,40.003,28.057,39.641,27.984,39.275"/>
</svg>
