<?xml version="1.0" encoding="utf-8"?>
<!-- Generator: Adobe Illustrator 16.0.0, SVG Export Plug-In . SVG Version: 6.00 Build 0)  -->
<!DOCTYPE svg PUBLIC "-//W3C//DTD SVG 1.1//EN" "http://www.w3.org/Graphics/SVG/1.1/DTD/svg11.dtd">
<svg version="1.1" id="Слой_1" xmlns="http://www.w3.org/2000/svg" xmlns:xlink="http://www.w3.org/1999/xlink" x="0px" y="0px"
	 width="42.022px" height="42.026px" viewBox="0 0 42.022 42.026" enable-background="new 0 0 42.022 42.026" xml:space="preserve">
<path fill="#FFFFFF" d="M41.936,23.438L33.441,9.497l0,0c-0.179,0.536-0.447,1.072-0.894,1.608
	c-0.894,0.983-2.235,1.519-3.934,1.698c-0.268,0-0.537,0-0.805,0c-2.414,0-4.739-0.983-6.08-2.502
	c-0.089-0.089-0.179-0.179-0.179-0.268c-0.268,0.536-0.626,0.983-1.073,1.34c-0.715,0.625-1.609,0.804-2.235,1.072
	c-0.984,0.269-2.325,0.626-3.577,0.626c-1.073,0-2.057-0.268-2.861-0.715c-0.626-0.358-0.983-0.805-1.341-1.251
	c-0.715-0.804-1.252-1.698-1.61-2.502C8.763,8.871,8.584,9.229,8.494,9.497L0.089,23.438C-0.089,23.795,0,24.152,0.358,24.421
	c0.894,0.715,2.772,1.876,4.828,1.34c0.268-0.089,0.447-0.179,0.626-0.357c0.894-1.162,4.918-6.167,6.527-9.473
	c0.089-0.268,0.626-0.179,0.626,0.089c-0.269,3.753-1.52,12.422-7.153,25.112c-0.179,0.357,0.268,0.715,0.715,0.625
	c1.967-0.357,6.438-0.715,14.217,0.268l0,0c7.958-0.983,12.607-0.537,14.575-0.268c0.536,0.089,0.894-0.269,0.715-0.625
	c-5.812-12.78-7.064-21.448-7.332-25.202c0-0.268,0.537-0.357,0.626-0.089c1.609,3.307,5.722,8.311,6.706,9.473
	c0.179,0.179,0.358,0.268,0.626,0.357c2.056,0.536,4.023-0.625,4.918-1.341C42.025,24.152,42.114,23.706,41.936,23.438z"/>
<path fill="#FFFFFF" d="M12.786,10.748c1.341,0.804,3.219,0.357,4.828-0.089c0.537-0.179,1.162-0.357,1.609-0.715
	c0.537-0.447,0.715-0.983,0.715-1.608c0.089-1.609-0.984-3.128-1.162-4.737c0-0.179,0-0.447,0.09-0.625
	c0.179-0.268,0.536-0.357,0.894-0.447c0.715-0.089,1.52-0.268,2.235-0.268c0.715,0.089,1.52,0.447,1.609,0.983
	s-0.358,0.983-0.715,1.43c-0.983,1.34-0.894,3.127,0.268,4.378c1.162,1.251,3.219,1.966,5.275,1.788
	c1.073-0.089,2.056-0.447,2.683-1.072c0.536-0.626,0.715-1.43,0.715-2.145c0.179-1.608,0.179-3.217-0.894-4.647
	c-0.984-1.251-2.861-2.055-4.739-2.502c-4.56-1.072-9.836-0.268-13.502,1.966c-0.894,0.536-1.788,1.251-2.235,2.056
	c-0.984,1.787,0.089,3.753,1.43,5.362C12.16,10.211,12.429,10.479,12.786,10.748z"/>
</svg>
