<?xml version="1.0" encoding="utf-8"?>
<!-- Generator: Adobe Illustrator 16.0.0, SVG Export Plug-In . SVG Version: 6.00 Build 0)  -->
<!DOCTYPE svg PUBLIC "-//W3C//DTD SVG 1.1//EN" "http://www.w3.org/Graphics/SVG/1.1/DTD/svg11.dtd">
<svg version="1.1" id="Слой_1" xmlns="http://www.w3.org/2000/svg" xmlns:xlink="http://www.w3.org/1999/xlink" x="0px" y="0px"
	 width="38.002px" height="36.009px" viewBox="0 0 38.002 36.009" enable-background="new 0 0 38.002 36.009" xml:space="preserve">
<path fill="#FFFFFF" d="M36.526,19.548c-0.886-6.237-4.344-13.939-4.471-14.274c-0.084-0.167-0.253-0.335-0.422-0.418l-6.537-2.972
	c0.886,1.214,1.688,2.679,1.813,4.354c0.127,2.051-0.464,2.553-1.012,2.595h-0.042l0,0l0,0c-0.506,0-1.012-0.335-1.012-0.335
	s1.898,1.59,1.181,3.893c-0.464,1.423-1.687,2.93-2.953,5.232c-0.759,1.381-1.476,3.056-2.066,5.19
	c-0.506,1.8-0.886,3.475-1.139,4.939v6.572c1.519,0.502,4.26,1.298,6.326,1.298c3.037,0,3.374-1.716,3.374-2.47
	c0-2.219-0.59-4.186-1.054-5.777c-0.337-1.088-0.59-2.051-0.59-2.72c0.042-0.921,0.548-3.307,1.054-5.358
	c0.295,1.256,0.632,2.93,0.97,4.897c0.801,4.981,0.97,10.967,0.97,11.009c0,0.209,0.084,0.461,0.253,0.586
	c0.169,0.168,0.38,0.251,0.633,0.209l5.398-0.293c0.464-0.042,0.801-0.418,0.801-0.879C37.707,30.055,37.454,25.911,36.526,19.548z"
	/>
<path fill="#FFFFFF" d="M14.764,2.01c0,0.125-0.042,0.209-0.042,0.334c-0.042,0.209-0.084,0.46-0.084,0.711
	c-0.169,1.591-0.169,3.475,0.379,5.442c0.464,1.674,1.054,3.6,1.687,5.441c1.181,3.516,2.362,6.614,2.362,6.614
	s1.139-3.098,2.32-6.614c0.59-1.841,1.223-3.767,1.687-5.441c0.928-3.391,0.253-6.614-0.21-8.246C22.397,0.084,21.976,0,21.512,0
	h-5.061c-0.464,0-0.886,0.084-1.265,0.251C15.06,0.712,14.891,1.298,14.764,2.01z"/>
<path fill="#FFFFFF" d="M16.915,28.841c-0.717,0-1.308-0.586-1.308-1.298c0-0.711,0.591-1.297,1.308-1.297
	c0.464,0,0.886,0.251,1.097,0.586c-0.253-1.256-0.591-2.595-1.012-4.102c-1.561-5.651-4.302-8.121-5.019-10.423
	c-0.675-2.051,0.801-3.558,1.097-3.809c-0.126,0.083-0.464,0.251-0.844,0.293c-0.042,0-0.084,0-0.126,0c0,0,0,0-0.042,0l0,0
	c-0.59,0-1.223-0.502-1.054-2.595c0.126-1.632,0.928-3.14,1.813-4.354L6.329,4.856C6.161,4.939,5.992,5.107,5.908,5.274
	c-0.127,0.335-3.585,8.037-4.513,14.274c-0.885,6.362-1.139,10.506-1.392,15.236c-0.042,0.46,0.337,0.837,0.801,0.879l5.398,0.293
	h0.042c0.211,0,0.422-0.084,0.59-0.209c0.169-0.167,0.253-0.377,0.253-0.586c0-0.042,0.168-6.028,0.97-11.009
	c0.295-1.967,0.674-3.642,0.97-4.897c0.506,2.051,1.054,4.437,1.054,5.358c0,0.669-0.253,1.59-0.59,2.679
	c-0.464,1.591-1.054,3.558-1.054,5.776c0,0.753,0.337,2.47,3.374,2.47c2.066,0,4.808-0.795,6.326-1.298v-6.195
	C17.927,28.548,17.463,28.841,16.915,28.841z"/>
</svg>
