<?xml version="1.0" encoding="utf-8"?>
<!-- Generator: Adobe Illustrator 16.0.0, SVG Export Plug-In . SVG Version: 6.00 Build 0)  -->
<!DOCTYPE svg PUBLIC "-//W3C//DTD SVG 1.1//EN" "http://www.w3.org/Graphics/SVG/1.1/DTD/svg11.dtd">
<svg version="1.1" id="Слой_1" xmlns="http://www.w3.org/2000/svg" xmlns:xlink="http://www.w3.org/1999/xlink" x="0px" y="0px"
	 width="29.042px" height="42px" viewBox="0 0 29.042 42" enable-background="new 0 0 29.042 42" xml:space="preserve">
<path fill="#FFFFFF" d="M26.925,29.462c-0.683-1.667-1.218-3.401-1.603-5.197c-3.155,1.367-7.51,2.401-10.781,2.401
	c-3.214,0-7.67-0.982-10.846-2.313c-0.415,1.793-0.979,3.532-1.693,5.207C8.967,33.679,20.013,33.619,26.925,29.462z"/>
<path fill="#FFFFFF" d="M4.549,17.13c-0.021,1.882-0.192,3.721-0.505,5.511c5.87,2.564,15.158,2.522,20.958-0.101
	c-0.278-1.76-0.424-3.569-0.425-5.424c-3.039,1.022-7.177,1.535-10.033,1.535C11.724,18.652,7.586,18.132,4.549,17.13z"/>
<path fill="#FFFFFF" d="M28.258,33.077c-0.186-0.646-0.428-1.325-0.694-2.015c-3.729,2.184-8.867,3.646-13.028,3.646
	c-4.139,0-9.432-1.396-13.188-3.558c-0.26,0.66-0.494,1.311-0.665,1.927c-1.098,3.892-0.549,8.014-0.524,8.186
	C0.21,41.683,0.573,42,0.996,42H28.14c0.431,0,0.802-0.334,0.836-0.78C28.993,41.048,29.339,36.951,28.258,33.077z"/>
<path fill="#FFFFFF" d="M4.118,15.147c5.665,2.366,15.302,2.372,20.908-0.03c0.023-0.039,0.04-0.078,0.065-0.117
	c0.785-1.251,1.098-2.7,0.903-4.191c-0.354-2.666-2.415-4.852-5.017-5.306c-0.084-0.015-0.168-0.021-0.252-0.032V0.857
	C20.726,0.384,20.348,0,19.881,0c-0.466,0-0.844,0.384-0.844,0.857v4.604c-1.069,0.148-2.085,0.58-2.949,1.268
	c-0.287,0.231-0.743,0.506-1.309,0.506c-0.684-0.009-1.351-0.223-1.866-0.608c-0.834-0.63-1.804-1.022-2.821-1.164V0.857
	C10.091,0.384,9.714,0,9.247,0S8.402,0.384,8.402,0.857v4.608C8.324,5.476,8.245,5.48,8.166,5.494
	c-2.602,0.446-4.67,2.623-5.025,5.289C2.938,12.283,3.25,13.74,4.036,15C4.067,15.049,4.089,15.098,4.118,15.147z"/>
</svg>
