<?xml version="1.0" encoding="utf-8"?>
<!-- Generator: Adobe Illustrator 16.0.0, SVG Export Plug-In . SVG Version: 6.00 Build 0)  -->
<!DOCTYPE svg PUBLIC "-//W3C//DTD SVG 1.1//EN" "http://www.w3.org/Graphics/SVG/1.1/DTD/svg11.dtd">
<svg version="1.1" id="Слой_1" xmlns="http://www.w3.org/2000/svg" xmlns:xlink="http://www.w3.org/1999/xlink" x="0px" y="0px"
	 width="36.893px" height="44.956px" viewBox="0 0 36.893 44.956" enable-background="new 0 0 36.893 44.956" xml:space="preserve">
<path fill="#FFFFFF" d="M15.495,34.229l18.314-7.675l3.083,6.354l-12.905,6.063L15.495,34.229z"/>
<path fill="#FFFFFF" d="M3.584,0C3.113,0.687,2.685,1.397,2.302,2.129c6.711,2.314,14.093,2.314,20.805,0
	C22.723,1.397,22.293,0.687,21.821,0C15.921,1.941,9.483,1.941,3.584,0z M12.682,1.854c0.477-0.012,0.874,0.337,0.887,0.781
	c0,0.008,0,0.017,0,0.025c0.001,0.443-0.386,0.803-0.863,0.803c-0.477,0-0.864-0.359-0.864-0.803v0
	C11.84,2.223,12.213,1.866,12.682,1.854z"/>
<path fill="#FFFFFF" d="M20.693,4.517l2.568,3.016c0.218,1.007,0.351,2.028,0.397,3.055l-4.831-5.674
	c-1.734,0.318-3.495,0.5-5.262,0.545v4.447c0,0.99-0.705,1.861-1.728,2.136V5.458c-1.767-0.045-3.527-0.228-5.261-0.545
	l-4.831,5.674C1.792,9.561,1.925,8.54,2.144,7.533l2.568-3.017C3.659,4.26,2.621,3.955,1.603,3.6
	c-1.642,3.851-2.032,8.064-1.124,12.119c1.318,5.885,1.692,11.918,1.112,17.905L0.492,44.956h7.859l4.009-27.577
	c0.026-0.175,0.2-0.299,0.389-0.275c0.154,0.019,0.276,0.132,0.296,0.275l2.208,15.189l8.304-3.48
	c-0.074-4.49,0.385-8.973,1.369-13.37c0.908-4.054,0.518-8.267-1.124-12.117C22.784,3.956,21.746,4.262,20.693,4.517L20.693,4.517z"
	/>
</svg>
