<?xml version="1.0" encoding="utf-8"?>
<!-- Generator: Adobe Illustrator 16.0.0, SVG Export Plug-In . SVG Version: 6.00 Build 0)  -->
<!DOCTYPE svg PUBLIC "-//W3C//DTD SVG 1.1//EN" "http://www.w3.org/Graphics/SVG/1.1/DTD/svg11.dtd">
<svg version="1.1" id="Слой_1" xmlns="http://www.w3.org/2000/svg" xmlns:xlink="http://www.w3.org/1999/xlink" x="0px" y="0px"
	 width="42px" height="32.001px" viewBox="0 0 42 32.001" enable-background="new 0 0 42 32.001" xml:space="preserve">
<path fill="#FFFFFF" d="M28.059,0.017c-0.483,0-0.888,0.28-0.953,0.755c-0.407,2.98-2.979,5.243-6.092,5.243
	c-3.113,0-5.684-2.243-6.091-5.223c-0.064-0.477-0.472-0.775-0.955-0.775H8.837L7.992,30.936c-0.007,0.26,0.09,0.551,0.272,0.735
	c0.182,0.185,0.431,0.33,0.69,0.33h24.121c0.259,0,0.508-0.183,0.69-0.366c0.181-0.186,0.278-0.403,0.273-0.662L33.195,0.017H28.059
	z"/>
<path fill="#FFFFFF" d="M0,3.208v8.217c0,0.314,0.223,0.609,0.481,0.786c0.261,0.179,0.626,0.219,0.921,0.108L7,10.243V0.004
	L0.69,2.312C0.315,2.451,0,2.809,0,3.208z"/>
<path fill="#FFFFFF" d="M41.321,2.312L35,0v10.24l5.592,2.081c0.295,0.111,0.68,0.071,0.939-0.108
	C41.793,12.034,42,11.739,42,11.426V3.208C42,2.809,41.699,2.451,41.321,2.312z"/>
</svg>
