<?xml version="1.0" encoding="utf-8"?>
<!-- Generator: Adobe Illustrator 16.0.0, SVG Export Plug-In . SVG Version: 6.00 Build 0)  -->
<!DOCTYPE svg PUBLIC "-//W3C//DTD SVG 1.1//EN" "http://www.w3.org/Graphics/SVG/1.1/DTD/svg11.dtd">
<svg version="1.1" id="Слой_1" xmlns="http://www.w3.org/2000/svg" xmlns:xlink="http://www.w3.org/1999/xlink" x="0px" y="0px"
	 width="19px" height="19px" viewBox="0 0 19 19" enable-background="new 0 0 19 19" xml:space="preserve">
<path fill="#0C0E0F" d="M13.153,8.038c0-1.408-0.5-2.613-1.501-3.614c-1.001-1.001-2.206-1.501-3.614-1.501s-2.613,0.5-3.614,1.501
	C3.423,5.425,2.923,6.63,2.923,8.038c0,1.408,0.5,2.613,1.501,3.614c1.001,1.001,2.206,1.501,3.614,1.501s2.613-0.5,3.614-1.501
	C12.653,10.651,13.153,9.447,13.153,8.038L13.153,8.038L13.153,8.038z M19,17.538c0,0.396-0.145,0.738-0.434,1.027
	C18.276,18.855,17.934,19,17.538,19c-0.411,0-0.753-0.145-1.027-0.434l-3.917-3.905c-1.363,0.944-2.881,1.416-4.556,1.416
	c-1.088,0-2.129-0.211-3.123-0.634c-0.994-0.422-1.85-0.994-2.569-1.713c-0.719-0.719-1.291-1.576-1.712-2.569
	C0.211,10.168,0,9.127,0,8.038c0-1.089,0.211-2.13,0.634-3.123c0.422-0.993,0.993-1.85,1.712-2.569s1.576-1.291,2.569-1.713
	C5.909,0.211,6.95,0,8.038,0c1.089,0,2.13,0.211,3.123,0.634c0.993,0.422,1.85,0.994,2.569,1.713
	c0.719,0.719,1.29,1.576,1.712,2.569c0.423,0.993,0.634,2.034,0.634,3.123c0,1.675-0.472,3.193-1.416,4.556l3.916,3.917
	C18.859,16.792,19,17.135,19,17.538L19,17.538L19,17.538z"/>
</svg>
