<?xml version="1.0" encoding="utf-8"?>
<!-- Generator: Adobe Illustrator 16.0.0, SVG Export Plug-In . SVG Version: 6.00 Build 0)  -->
<!DOCTYPE svg PUBLIC "-//W3C//DTD SVG 1.1//EN" "http://www.w3.org/Graphics/SVG/1.1/DTD/svg11.dtd">
<svg version="1.1" id="Слой_1" xmlns="http://www.w3.org/2000/svg" xmlns:xlink="http://www.w3.org/1999/xlink" x="0px" y="0px"
	 width="46.994px" height="18.748px" viewBox="0 0 46.994 18.748" enable-background="new 0 0 46.994 18.748" xml:space="preserve">
<path fill="none" stroke="#EF7F1A" stroke-miterlimit="10" d="M46.494,12.578c0,3.132-2.538,5.67-5.669,5.67H6.169
	c-3.131,0-5.669-2.538-5.669-5.67V6.169C0.5,3.038,3.038,0.5,6.169,0.5h34.656c3.131,0,5.669,2.538,5.669,5.669V12.578z"/>
<g>
	<path fill="#EF7F1A" d="M18.266,15.864v-3.108h-5.632v-1.461l5.924-8.412h1.302v8.412h1.753v1.461h-1.753v3.108H18.266z
		 M18.266,11.295V5.442l-4.064,5.853H18.266z"/>
	<path fill="#EF7F1A" d="M28.351,15.864v-3.108h-5.631v-1.461l5.923-8.412h1.303v8.412h1.753v1.461h-1.753v3.108H28.351z
		 M28.351,11.295V5.442l-4.063,5.853H28.351z"/>
</g>
</svg>
