<?xml version="1.0" encoding="utf-8"?>
<!-- Generator: Adobe Illustrator 16.0.0, SVG Export Plug-In . SVG Version: 6.00 Build 0)  -->
<!DOCTYPE svg PUBLIC "-//W3C//DTD SVG 1.1//EN" "http://www.w3.org/Graphics/SVG/1.1/DTD/svg11.dtd">
<svg version="1.1" id="Слой_1" xmlns="http://www.w3.org/2000/svg" xmlns:xlink="http://www.w3.org/1999/xlink" x="0px" y="0px"
	 width="46.994px" height="18.748px" viewBox="0 0 46.994 18.748" enable-background="new 0 0 46.994 18.748" xml:space="preserve">
<path fill="none" stroke="#BABABA" stroke-miterlimit="10" d="M46.494,12.578c0,3.132-2.538,5.67-5.669,5.67H6.169
	c-3.131,0-5.669-2.538-5.669-5.67V6.169C0.5,3.038,3.038,0.5,6.169,0.5h34.656c3.131,0,5.669,2.538,5.669,5.669V12.578z"/>
<g>
	<path fill="#BABABA" d="M18.178,15.905v-3.06h-5.544v-1.44l5.832-8.28h1.282v8.28h1.726v1.44h-1.726v3.06H18.178z M18.178,11.405
		V5.644l-4.001,5.762H18.178z"/>
	<path fill="#BABABA" d="M31.22,6.254l-1.561,0.122c-0.139-0.616-0.338-1.063-0.592-1.342c-0.424-0.447-0.947-0.671-1.57-0.671
		c-0.5,0-0.938,0.14-1.316,0.418c-0.494,0.361-0.881,0.886-1.168,1.578c-0.283,0.692-0.432,1.676-0.443,2.955
		c0.377-0.575,0.84-1.002,1.387-1.281c0.545-0.279,1.115-0.418,1.717-0.418c1.045,0,1.936,0.385,2.67,1.155
		c0.736,0.77,1.104,1.766,1.104,2.985c0,0.802-0.172,1.547-0.518,2.236c-0.348,0.689-0.822,1.216-1.426,1.582
		s-1.291,0.549-2.057,0.549c-1.309,0-2.375-0.479-3.199-1.441c-0.827-0.963-1.239-2.548-1.239-4.756c0-2.47,0.456-4.266,1.368-5.387
		c0.797-0.977,1.869-1.465,3.219-1.465c1.004,0,1.828,0.282,2.471,0.846C30.706,4.482,31.093,5.26,31.22,6.254z M24.813,11.764
		c0,0.54,0.113,1.058,0.344,1.551c0.229,0.494,0.551,0.872,0.965,1.13c0.412,0.259,0.844,0.389,1.299,0.389
		c0.662,0,1.23-0.268,1.707-0.803c0.477-0.534,0.713-1.261,0.713-2.179c0-0.884-0.234-1.58-0.703-2.088
		C28.665,9.254,28.073,9,27.358,9c-0.709,0-1.311,0.254-1.805,0.763C25.06,10.271,24.813,10.938,24.813,11.764z"/>
</g>
</svg>
