<?xml version="1.0" encoding="utf-8"?>
<!-- Generator: Adobe Illustrator 16.0.0, SVG Export Plug-In . SVG Version: 6.00 Build 0)  -->
<!DOCTYPE svg PUBLIC "-//W3C//DTD SVG 1.1//EN" "http://www.w3.org/Graphics/SVG/1.1/DTD/svg11.dtd">
<svg version="1.1" id="Слой_1" xmlns="http://www.w3.org/2000/svg" xmlns:xlink="http://www.w3.org/1999/xlink" x="0px" y="0px"
	 width="46.994px" height="18.748px" viewBox="0 0 46.994 18.748" enable-background="new 0 0 46.994 18.748" xml:space="preserve">
<path fill="none" stroke="#BABABA" stroke-miterlimit="10" d="M46.494,12.578c0,3.132-2.538,5.67-5.669,5.67H6.169
	c-3.131,0-5.669-2.538-5.669-5.67V6.169C0.5,3.038,3.038,0.5,6.169,0.5h34.656c3.131,0,5.669,2.538,5.669,5.669V12.578z"/>
<g>
	<path fill="#BABABA" d="M18.283,16.03v-3.18h-5.761v-1.495l6.06-8.606h1.332v8.606h1.793v1.495h-1.793v3.18H18.283z M18.283,11.355
		V5.367l-4.158,5.988H18.283z"/>
	<path fill="#BABABA" d="M25.883,8.828c-0.677-0.248-1.178-0.601-1.504-1.06C24.054,7.309,23.89,6.759,23.89,6.12
		c0-0.967,0.348-1.779,1.042-2.437s1.618-0.987,2.772-0.987c1.159,0,2.092,0.336,2.799,1.01c0.706,0.673,1.06,1.494,1.06,2.46
		c0,0.616-0.161,1.152-0.485,1.608c-0.322,0.456-0.813,0.807-1.471,1.055c0.814,0.266,1.435,0.695,1.861,1.287
		c0.426,0.592,0.639,1.299,0.639,2.119c0,1.136-0.402,2.09-1.206,2.863c-0.802,0.772-1.859,1.159-3.169,1.159
		c-1.311,0-2.367-0.388-3.171-1.164s-1.205-1.743-1.205-2.903c0-0.864,0.219-1.587,0.656-2.169
		C24.45,9.437,25.073,9.039,25.883,8.828z M25.031,12.197c0,0.465,0.11,0.915,0.331,1.35c0.221,0.436,0.548,0.771,0.982,1.011
		c0.436,0.238,0.903,0.357,1.404,0.357c0.778,0,1.422-0.25,1.93-0.751c0.507-0.501,0.76-1.139,0.76-1.911
		c0-0.786-0.261-1.436-0.783-1.949c-0.522-0.513-1.176-0.77-1.96-0.77c-0.768,0-1.403,0.254-1.907,0.761
		C25.283,10.803,25.031,11.438,25.031,12.197z M25.557,6.065c0,0.628,0.202,1.141,0.606,1.54c0.405,0.399,0.931,0.598,1.577,0.598
		c0.628,0,1.143-0.198,1.544-0.594c0.401-0.396,0.603-0.88,0.603-1.454c0-0.598-0.207-1.101-0.621-1.508
		c-0.413-0.408-0.928-0.611-1.544-0.611c-0.622,0-1.139,0.199-1.549,0.598C25.762,5.032,25.557,5.509,25.557,6.065z"/>
</g>
</svg>
