<?xml version="1.0" encoding="utf-8"?>
<!-- Generator: Adobe Illustrator 16.0.0, SVG Export Plug-In . SVG Version: 6.00 Build 0)  -->
<!DOCTYPE svg PUBLIC "-//W3C//DTD SVG 1.1//EN" "http://www.w3.org/Graphics/SVG/1.1/DTD/svg11.dtd">
<svg version="1.1" id="Слой_1" xmlns="http://www.w3.org/2000/svg" xmlns:xlink="http://www.w3.org/1999/xlink" x="0px" y="0px"
	 width="24.006px" height="22px" viewBox="0 0 24.006 22" enable-background="new 0 0 24.006 22" xml:space="preserve">
<path fill="#0C0E0F" d="M0.8,0C0.358,0,0,0.369,0,0.825C0,1.281,0.358,1.65,0.8,1.65h2.552l2.751,13.38
	c0.109,0.503,0.429,0.923,0.834,0.92h13.342c0.423,0.006,0.812-0.389,0.812-0.825s-0.389-0.831-0.812-0.825H7.588l-0.342-1.65h14.1
	c0.358-0.003,0.697-0.284,0.776-0.644l1.868-8.25c0.104-0.479-0.299-1.002-0.776-1.005H5.22L4.786,0.653C4.71,0.287,4.366,0,4.002,0
	H0.8z M5.554,4.4h4.853v2.475H6.062L5.554,4.4z M12.007,4.4h3.736v2.475h-3.736V4.4z M17.344,4.4h4.861l-0.559,2.475h-4.303V4.4z
	 M6.404,8.525h4.002V11H6.913L6.404,8.525z M12.007,8.525h3.736V11h-3.736V8.525z M17.344,8.525h3.928L20.713,11h-3.369V8.525z
	 M9.606,16.5c-1.464,0-2.668,1.241-2.668,2.75c0,1.509,1.204,2.75,2.668,2.75c1.464,0,2.668-1.241,2.668-2.75
	C12.274,17.741,11.07,16.5,9.606,16.5z M17.611,16.5c-1.464,0-2.668,1.241-2.668,2.75c0,1.509,1.204,2.75,2.668,2.75
	c1.464,0,2.668-1.241,2.668-2.75C20.279,17.741,19.075,16.5,17.611,16.5z M9.606,18.15c0.599,0,1.067,0.483,1.067,1.1
	c0,0.617-0.468,1.1-1.067,1.1c-0.599,0-1.067-0.483-1.067-1.1C8.539,18.633,9.007,18.15,9.606,18.15z M17.611,18.15
	c0.599,0,1.067,0.483,1.067,1.1c0,0.617-0.468,1.1-1.067,1.1s-1.067-0.483-1.067-1.1C16.543,18.633,17.012,18.15,17.611,18.15z"/>
</svg>
