<?xml version="1.0" encoding="utf-8"?>
<!-- Generator: Adobe Illustrator 16.0.0, SVG Export Plug-In . SVG Version: 6.00 Build 0)  -->
<!DOCTYPE svg PUBLIC "-//W3C//DTD SVG 1.1//EN" "http://www.w3.org/Graphics/SVG/1.1/DTD/svg11.dtd">
<svg version="1.1" id="Слой_1" xmlns="http://www.w3.org/2000/svg" xmlns:xlink="http://www.w3.org/1999/xlink" x="0px" y="0px"
	 width="24.006px" height="22px" viewBox="0 0 24.006 22" enable-background="new 0 0 24.006 22" xml:space="preserve">
<path fill="#EF7F1A" d="M0.8,0C0.358,0,0,0.369,0,0.825C0,1.281,0.358,1.65,0.8,1.65h2.552l2.751,13.379
	c0.109,0.504,0.429,0.924,0.834,0.921h13.341c0.424,0.006,0.813-0.39,0.813-0.825s-0.389-0.831-0.813-0.825H7.588L7.246,12.65
	h14.101c0.357-0.004,0.696-0.284,0.775-0.645l1.868-8.25c0.104-0.479-0.3-1.002-0.776-1.005H5.22L4.786,0.653
	C4.71,0.287,4.366,0,4.002,0H0.8z M5.554,4.4h4.853v2.475H6.062L5.554,4.4z M12.007,4.4h3.736v2.475h-3.736V4.4z M17.345,4.4h4.86
	l-0.56,2.475h-4.303V4.4H17.345z M6.404,8.525h4.002V11H6.913L6.404,8.525z M12.007,8.525h3.736V11h-3.736V8.525z M17.345,8.525
	h3.928L20.713,11h-3.368V8.525z M9.606,16.5c-1.464,0-2.668,1.241-2.668,2.75S8.142,22,9.606,22s2.668-1.241,2.668-2.75
	S11.07,16.5,9.606,16.5z M17.61,16.5c-1.463,0-2.668,1.241-2.668,2.75S16.147,22,17.61,22c1.465,0,2.668-1.241,2.668-2.75
	S19.075,16.5,17.61,16.5z M9.606,18.15c0.599,0,1.067,0.482,1.067,1.1s-0.468,1.1-1.067,1.1s-1.067-0.482-1.067-1.1
	S9.007,18.15,9.606,18.15z M17.61,18.15c0.6,0,1.068,0.482,1.068,1.1s-0.469,1.1-1.068,1.1c-0.598,0-1.066-0.482-1.066-1.1
	C16.543,18.633,17.013,18.15,17.61,18.15z"/>
</svg>
